PathFileType	4	(X/Y/Z)	D:\TRACE\v60_Jaco2_6-2-23\JustBodyDRS_Motion1_4-v60.trc
DataRate	CameraRate	NumFrames	NumMarkers	Units	OrigDataRate	OrigDataStartFrame	OrigNumFrames
100.00	100.00	      42	9	mm	100.00	1	      6956
Frame#	Time	front left toe			Front right toe			aft left toe			aft right toe			Arm			FL body			FR body			AL Body			AR Body			
		X1	Y1	Z1	X2	Y2	Z2	X3	Y3	Z3	X4	Y4	Z4	X5	Y5	Z5	X6	Y6	Z6	X7	Y7	Z7	X8	Y8	Z8	X9	Y9	Z9	

1	0.000	-185.95496	19.38452	-249.16988	214.89828	17.82006	-221.84511	-220.82156	17.98537	397.86334	193.71132	19.16264	375.56546	-83.24714	1206.95630	-383.89291	-59.19457	574.20166	-375.98529	99.91091	573.95636	-370.65488	-93.23970	575.74335	569.94385	63.12311	568.56207	575.82666	
2	0.010	-185.93797	19.32058	-249.19685	214.91389	17.81474	-221.84416	-220.80214	18.00461	397.83728	193.69545	19.13435	375.54965	-83.51363	1206.80029	-384.15765	-59.21033	574.25671	-375.98666	99.88289	573.99139	-370.64343	-93.25652	575.75470	569.94708	63.12221	568.56500	575.82776	
3	0.020	-185.96355	19.33700	-249.16759	214.92337	17.82368	-221.81674	-220.78049	17.98408	397.86942	193.72765	19.22309	375.57684	-83.56173	1206.82690	-384.15839	-59.05787	574.13800	-375.94647	99.79962	574.04303	-370.67761	-93.22504	575.79114	569.95367	63.08737	568.57922	575.84723	
4	0.030	-185.95351	19.31249	-249.20035	214.89804	17.75237	-221.80853	-220.74857	17.98316	397.86057	193.75125	19.21461	375.57233	-83.61864	1206.84375	-384.17078	-60.43437	574.83313	-376.69193	99.95451	573.97394	-370.61096	-93.19930	575.78143	569.96246	63.13904	568.58313	575.84100	
5	0.040	-185.94698	19.34383	-249.16553	214.91806	17.81815	-221.83040	-220.79373	17.99997	397.88181	193.70039	19.19564	375.52307	-83.56663	1206.83496	-384.16144	-60.43779	574.89563	-376.68427	99.84328	574.00897	-370.68274	-93.22006	575.76245	569.91577	63.11328	568.58569	575.84479	
6	0.050	-185.96205	19.38116	-249.18846	214.90668	17.80643	-221.84010	-220.79373	17.98527	397.87466	193.75607	19.21656	375.57452	-83.48015	1206.78442	-384.13245	-59.09885	574.20648	-376.01602	99.86263	573.98181	-370.66977	-93.21729	575.75903	569.93018	63.09379	568.56226	575.79474	
7	0.060	-185.93652	19.29000	-249.18495	214.87793	17.79288	-221.81500	-220.79659	17.99741	397.85602	193.72775	19.16481	375.58203	-83.59984	1206.81567	-384.18332	-60.39312	574.83264	-376.73511	99.77985	574.05078	-370.67200	-93.23154	575.74658	569.93750	63.08913	568.58801	575.83307	
8	0.070	-185.92903	19.27375	-249.15430	214.87685	17.81083	-221.79170	-220.84048	17.98577	397.87915	193.66466	19.13783	375.54517	-83.58961	1206.81567	-384.12564	-60.38571	574.84534	-376.69647	99.82956	573.99762	-370.66040	-93.21495	575.77057	569.96082	63.07963	568.54974	575.83789	
9	0.080	-185.91307	19.29217	-249.15071	214.89496	17.76284	-221.80934	-220.84143	18.00603	397.86456	193.66183	19.12822	375.56003	-83.52415	1206.81506	-384.15488	-60.43024	574.84680	-376.67221	99.84756	574.01361	-370.66522	-93.22655	575.76666	569.94946	63.09428	568.55963	575.83234	
10	0.090	-185.93024	19.30900	-249.21408	214.91762	17.80815	-221.78716	-220.79686	17.97219	397.86346	193.70454	19.17899	375.55716	-83.56613	1206.82336	-384.13580	-60.30840	574.80823	-376.70609	99.89212	573.96912	-370.64581	-93.24583	575.75995	569.94073	63.13227	568.57965	575.83301	
11	0.100	-185.91861	19.30591	-249.15921	214.90884	17.78436	-221.80534	-220.75215	17.97290	397.86090	193.70306	19.18681	375.58273	-83.61236	1206.83142	-384.17935	-59.15346	574.16217	-376.02606	99.87290	574.00092	-370.66550	-93.20336	575.73053	569.93542	63.10551	568.57520	575.82568	
12	0.110	-185.92416	19.26570	-249.14995	214.86855	17.78271	-221.82831	-220.76050	17.97270	397.86252	193.72180	19.21639	375.59433	-83.50089	1206.83838	-384.12900	-60.38454	574.83716	-376.71359	99.96688	573.97754	-370.64996	-93.20661	575.77594	569.95074	63.10003	568.55988	575.82953	
13	0.120	-185.94112	19.27089	-249.16757	214.87540	17.74935	-221.81577	-220.83498	18.00107	397.88184	193.68605	19.16334	375.61554	-83.62090	1206.87866	-384.19620	-60.33913	574.79773	-376.68515	99.87473	573.99738	-370.66238	-93.19112	575.75720	569.94806	63.10165	568.54175	575.86145	
14	0.130	-185.89227	19.24344	-249.14856	214.86130	17.76476	-221.81778	-220.80721	17.97547	397.86591	193.69536	19.18069	375.55865	-83.50829	1206.84912	-384.13647	-59.07043	574.15137	-376.01987	99.86954	573.97162	-370.66129	-93.16579	575.75958	569.93536	63.12621	568.56281	575.85345	
15	0.140	-185.91667	19.31198	-249.17186	214.85652	17.76659	-221.79736	-220.80753	18.00158	397.88461	193.71594	19.16828	375.57962	-83.46583	1206.81946	-384.10394	-60.32648	574.81342	-376.69644	99.91801	574.01355	-370.64453	-93.23376	575.79156	569.96216	63.08979	568.56451	575.82678	
16	0.150	-185.95168	19.33492	-249.18990	214.83707	17.78392	-221.84492	-220.79298	17.99259	397.86414	193.72302	19.19432	375.55383	-83.64240	1206.84937	-384.19354	-60.33403	574.82867	-376.70154	99.91243	573.97107	-370.66913	-93.21792	575.79053	569.96387	63.15801	568.56555	575.84851	
17	0.160	-185.94324	19.35678	-249.18315	214.87091	17.78578	-221.81061	-220.81328	17.99865	397.87747	193.68022	19.13362	375.53375	-83.59568	1206.81555	-384.18356	-60.32592	574.82410	-376.69562	99.89095	573.99658	-370.66891	-93.19775	575.77130	569.96411	63.16373	568.57727	575.84497	
18	0.170	-185.93039	19.29445	-249.17116	214.88969	17.78313	-221.81128	-220.77771	17.98759	397.85959	193.70172	19.15228	375.53320	-83.52093	1206.80786	-384.15417	-60.32104	574.78809	-376.68317	99.83180	574.01398	-370.68048	-93.18822	575.78552	569.95459	63.18897	568.54388	575.85028	
19	0.180	-185.94858	19.28616	-249.16141	214.86543	17.75391	-221.80109	-220.80064	17.99742	397.87012	193.69119	19.17047	375.54703	-83.53095	1206.83008	-384.15079	-60.33023	574.84424	-376.68320	99.87361	573.97723	-370.68988	-93.23666	575.75726	569.92706	63.11166	568.57941	575.83069	
20	0.190	-185.93483	19.32944	-249.17424	214.88722	17.77794	-221.84001	-220.78406	17.99501	397.87402	193.75073	19.17426	375.61420	-83.50297	1206.80981	-384.19052	-60.34539	574.82001	-376.68793	99.86459	574.01318	-370.67944	-93.23917	575.78656	569.91772	63.15802	568.55737	575.83795	
21	0.200	-185.94298	19.36197	-249.19435	214.91653	17.84488	-221.80415	-220.78107	17.97602	397.89740	193.70819	19.19724	375.54108	-83.19630	1206.95288	-383.89816	-60.36372	574.82733	-376.68875	99.82618	574.02948	-370.66867	-93.16070	575.79846	569.92853	63.12564	568.58673	575.83472	
22	0.210	-185.96738	19.38563	-249.20636	214.92403	17.79859	-221.81868	-220.75624	17.95766	397.86389	193.75696	19.24503	375.54105	-83.51495	1206.83582	-384.17429	-60.33339	574.85419	-376.72702	99.85665	573.98541	-370.68024	-93.18671	575.76050	569.93152	63.17624	568.60284	575.81763	
23	0.220	-185.94859	19.34040	-249.16666	214.88223	17.81374	-221.80246	-220.83516	18.00398	397.88174	193.71049	19.22343	375.58865	-83.44205	1206.80273	-384.13950	-60.34896	574.81653	-376.72916	99.82539	573.97815	-370.68677	-93.27664	575.77911	569.93182	63.12164	568.59912	575.86249	
24	0.230	-185.96368	19.33487	-249.16605	214.89545	17.80723	-221.78052	-220.82500	18.00736	397.90021	193.72519	19.16190	375.57574	-83.56991	1206.83337	-384.16156	-60.34978	574.79657	-376.66824	99.86993	574.00336	-370.67560	-93.22507	575.78088	569.96307	63.14199	568.56805	575.83185	
25	0.240	-185.95959	19.34899	-249.18018	214.87868	17.79841	-221.80293	-220.77345	17.97539	397.86569	193.71268	19.19669	375.56097	-83.59222	1206.84729	-384.19305	-60.34502	574.82086	-376.71310	99.87291	573.96594	-370.70047	-93.17701	575.82599	569.96576	63.12627	568.58722	575.85944	
26	0.250	-185.91008	19.30543	-249.18317	214.87004	17.76659	-221.83701	-220.76886	17.98269	397.87863	193.76706	19.21152	375.61600	-83.51260	1206.80408	-384.15848	-60.42587	574.88013	-376.69397	99.89050	573.99860	-370.66025	-93.16219	575.82166	569.95844	63.16747	568.58093	575.83008	
27	0.260	-185.91237	19.30335	-249.17030	214.86113	17.75572	-221.80275	-220.74599	17.97085	397.88559	193.73662	19.18935	375.59103	-83.24261	1206.94678	-383.94058	-60.33520	574.83142	-376.68768	99.90271	573.97028	-370.69864	-93.21254	575.75482	569.94244	63.12918	568.58691	575.84521	
28	0.270	-185.90768	19.27766	-249.16423	214.91774	17.78047	-221.77966	-220.76357	17.97604	397.86859	193.72762	19.14565	375.62311	-83.49133	1206.80261	-384.15564	-60.36677	574.83380	-376.73315	99.86040	573.97723	-370.69681	-93.15002	575.77594	569.96075	63.17177	568.57617	575.84473	
29	0.280	-185.91298	19.23541	-249.15215	214.93002	17.77072	-221.78110	-220.79758	17.97941	397.84766	193.68185	19.16133	375.58765	-83.49656	1206.82666	-384.16821	-59.05767	574.15082	-375.97482	99.95435	573.98175	-370.64868	-93.15498	575.75409	569.94812	63.13348	568.57935	575.90088	
30	0.290	-185.91623	19.27082	-249.14621	214.87761	17.75527	-221.79494	-220.83133	17.99058	397.89496	193.67473	19.13365	375.57932	-83.57690	1206.77979	-384.19308	-60.39762	574.85370	-376.68814	99.95654	573.99335	-370.68826	-93.19115	575.75726	569.95123	63.18184	568.55695	575.83850	
31	0.300	-185.94067	19.31063	-249.15004	214.88847	17.79259	-221.80795	-220.80110	17.99598	397.86365	193.67700	19.13061	375.59698	-83.56131	1206.84875	-384.14850	-60.33714	574.82092	-376.68872	99.90143	573.96979	-370.69650	-93.15170	575.77301	569.93939	63.13885	568.58008	575.85815	
32	0.310	-185.93246	19.30797	-249.17091	214.86838	17.75652	-221.83517	-220.77911	17.99424	397.86499	193.67455	19.19498	375.57318	-83.52952	1206.81384	-384.17276	-60.33199	574.84259	-376.72131	99.91757	573.95935	-370.67233	-93.19740	575.78253	569.94214	63.16836	568.56958	575.81677	
33	0.320	-185.89784	19.26623	-249.15247	214.96060	17.79827	-221.78734	-220.79816	18.00151	397.88138	193.72169	19.17066	375.57999	-83.49585	1206.80371	-384.16013	-60.36674	574.83521	-376.69431	99.82932	573.98230	-370.68115	-93.21278	575.77710	569.92102	63.16230	568.58777	575.84711	
34	0.330	-185.95390	19.27601	-249.16635	214.88364	17.74343	-221.80913	-220.77203	17.99624	397.86703	193.68561	19.12513	375.56961	-83.58729	1206.80713	-384.18100	-60.38231	574.85675	-376.69196	99.92602	573.96490	-370.64319	-93.20797	575.74548	569.94012	63.14645	568.54681	575.83002	
35	0.340	-185.90129	19.21398	-249.14192	214.90829	17.76820	-221.77745	-220.79259	17.99177	397.87570	193.67941	19.15317	375.58722	-83.61654	1206.85486	-384.17383	-60.40282	574.85773	-376.67499	99.82874	573.98804	-370.67886	-93.19468	575.78259	569.94806	63.11607	568.58490	575.83832	
36	0.350	-185.94565	19.31348	-249.20348	214.91335	17.78695	-221.81866	-220.77258	17.98680	397.86630	193.78864	19.26846	375.58429	-83.52518	1206.80969	-384.14615	-60.33265	574.84204	-376.69284	99.91251	574.00311	-370.62082	-93.20928	575.79901	569.94403	63.13659	568.59717	575.83075	
37	0.360	-185.96504	19.36689	-249.19264	214.92563	17.84050	-221.80499	-220.76587	17.98761	397.87976	193.76080	19.22548	375.58133	-83.54844	1206.81287	-384.16937	-60.38072	574.85864	-376.68988	99.83175	573.98962	-370.68985	-93.18857	575.79254	569.91663	63.13820	568.59998	575.82074	
38	0.370	-185.97815	19.38730	-249.19690	214.89441	17.83605	-221.86363	-220.78421	18.00125	397.86874	193.77818	19.26917	375.58383	-83.44814	1206.83325	-384.14542	-60.36002	574.84857	-376.72501	99.90216	573.99139	-370.65457	-93.16965	575.79138	569.93262	63.17481	568.59039	575.82471	
39	0.380	-185.92126	19.30118	-249.19186	214.90421	17.81204	-221.81432	-220.78186	17.98784	397.86108	193.76544	19.25312	375.57379	-83.49856	1206.80994	-384.13229	-60.32852	574.82617	-376.69669	99.87868	573.96851	-370.64374	-93.17153	575.78760	569.92987	63.14181	568.59326	575.81976	
40	0.390	-185.97522	19.33046	-249.16907	214.89342	17.78992	-221.79272	-220.82419	17.98915	397.87030	193.67755	19.17084	375.52170	-83.56432	1206.81799	-384.17953	-60.33908	574.81500	-376.69263	99.88383	573.97577	-370.68338	-93.24795	575.79877	569.94818	63.14102	568.59277	575.82526	
41	0.400	-185.96698	19.34631	-249.16653	214.91615	17.79245	-221.79675	-220.78078	17.97187	397.87253	193.72292	19.22387	375.55511	-83.52316	1206.80334	-384.17319	-60.29033	574.81116	-376.69498	99.90400	573.97949	-370.68195	-93.19081	575.78320	569.95850	63.18519	568.60950	575.83118	
42	0.410	-185.95421	19.34803	-249.18806	214.93619	17.83413	-221.77954	-220.78868	17.99171	397.86423	193.73645	19.21394	375.56839	-83.15560	1206.91016	-383.94098	-60.33732	574.83923	-376.71429	99.83739	574.00568	-370.70880	-93.17445	575.77051	569.91345	63.14915	568.55804	575.82800	
